<mxfile host="app.diagrams.net" agent="Mozilla/5.0 (Windows NT 10.0; Win64; x64) AppleWebKit/537.36 (KHTML, like Gecko) Chrome/129.0.0.0 Safari/537.36" version="24.7.17" pages="2">
  <diagram name="Mức ngữ cảnh" id="0ZMzbmQiju6jC3zMDHwC">
    <mxGraphModel dx="2117" dy="530" grid="1" gridSize="10" guides="1" tooltips="1" connect="1" arrows="1" fold="1" page="1" pageScale="1" pageWidth="827" pageHeight="1169" math="0" shadow="0">
      <root>
        <mxCell id="0" />
        <mxCell id="1" parent="0" />
        <mxCell id="xWA896LJ9tH8qgdd4yTV-6" style="edgeStyle=orthogonalEdgeStyle;rounded=0;orthogonalLoop=1;jettySize=auto;html=1;exitX=0.667;exitY=0;exitDx=0;exitDy=0;exitPerimeter=0;" edge="1" parent="1">
          <mxGeometry relative="1" as="geometry">
            <mxPoint x="230.03999999999996" y="80" as="sourcePoint" />
            <mxPoint x="430" y="200" as="targetPoint" />
            <Array as="points">
              <mxPoint x="230" y="50" />
              <mxPoint x="430" y="50" />
            </Array>
          </mxGeometry>
        </mxCell>
        <mxCell id="xWA896LJ9tH8qgdd4yTV-16" style="edgeStyle=orthogonalEdgeStyle;rounded=0;orthogonalLoop=1;jettySize=auto;html=1;" edge="1" parent="1" source="xWA896LJ9tH8qgdd4yTV-1">
          <mxGeometry relative="1" as="geometry">
            <mxPoint x="452" y="200" as="targetPoint" />
            <Array as="points">
              <mxPoint x="450" y="120" />
              <mxPoint x="450" y="198" />
            </Array>
          </mxGeometry>
        </mxCell>
        <mxCell id="xWA896LJ9tH8qgdd4yTV-1" value="Chủ rạp" style="rounded=0;whiteSpace=wrap;html=1;" vertex="1" parent="1">
          <mxGeometry x="160" y="80" width="120" height="60" as="geometry" />
        </mxCell>
        <mxCell id="xWA896LJ9tH8qgdd4yTV-25" style="edgeStyle=orthogonalEdgeStyle;rounded=0;orthogonalLoop=1;jettySize=auto;html=1;" edge="1" parent="1" source="xWA896LJ9tH8qgdd4yTV-2" target="xWA896LJ9tH8qgdd4yTV-3">
          <mxGeometry relative="1" as="geometry">
            <Array as="points">
              <mxPoint x="740" y="40" />
              <mxPoint x="480" y="40" />
            </Array>
          </mxGeometry>
        </mxCell>
        <mxCell id="xWA896LJ9tH8qgdd4yTV-27" style="edgeStyle=orthogonalEdgeStyle;rounded=0;orthogonalLoop=1;jettySize=auto;html=1;entryX=0.75;entryY=0;entryDx=0;entryDy=0;" edge="1" parent="1" source="xWA896LJ9tH8qgdd4yTV-2" target="xWA896LJ9tH8qgdd4yTV-3">
          <mxGeometry relative="1" as="geometry">
            <Array as="points">
              <mxPoint x="525" y="100" />
            </Array>
          </mxGeometry>
        </mxCell>
        <mxCell id="xWA896LJ9tH8qgdd4yTV-2" value="Quản lí rạp" style="rounded=0;whiteSpace=wrap;html=1;" vertex="1" parent="1">
          <mxGeometry x="670" y="80" width="120" height="60" as="geometry" />
        </mxCell>
        <mxCell id="xWA896LJ9tH8qgdd4yTV-5" style="edgeStyle=orthogonalEdgeStyle;rounded=0;orthogonalLoop=1;jettySize=auto;html=1;" edge="1" parent="1" source="xWA896LJ9tH8qgdd4yTV-3">
          <mxGeometry relative="1" as="geometry">
            <mxPoint x="170" y="140" as="targetPoint" />
            <Array as="points">
              <mxPoint x="170" y="250" />
            </Array>
          </mxGeometry>
        </mxCell>
        <mxCell id="xWA896LJ9tH8qgdd4yTV-19" style="edgeStyle=orthogonalEdgeStyle;rounded=0;orthogonalLoop=1;jettySize=auto;html=1;entryX=0.25;entryY=1;entryDx=0;entryDy=0;" edge="1" parent="1" source="xWA896LJ9tH8qgdd4yTV-3" target="xWA896LJ9tH8qgdd4yTV-1">
          <mxGeometry relative="1" as="geometry">
            <Array as="points">
              <mxPoint x="190" y="220" />
            </Array>
          </mxGeometry>
        </mxCell>
        <mxCell id="xWA896LJ9tH8qgdd4yTV-34" style="edgeStyle=orthogonalEdgeStyle;rounded=0;orthogonalLoop=1;jettySize=auto;html=1;entryX=1;entryY=0.5;entryDx=0;entryDy=0;" edge="1" parent="1" source="xWA896LJ9tH8qgdd4yTV-3" target="xWA896LJ9tH8qgdd4yTV-2">
          <mxGeometry relative="1" as="geometry">
            <Array as="points">
              <mxPoint x="870" y="270" />
              <mxPoint x="870" y="110" />
            </Array>
          </mxGeometry>
        </mxCell>
        <mxCell id="xWA896LJ9tH8qgdd4yTV-38" style="edgeStyle=orthogonalEdgeStyle;rounded=0;orthogonalLoop=1;jettySize=auto;html=1;entryX=1;entryY=0;entryDx=0;entryDy=0;" edge="1" parent="1" source="xWA896LJ9tH8qgdd4yTV-3" target="xWA896LJ9tH8qgdd4yTV-2">
          <mxGeometry relative="1" as="geometry">
            <Array as="points">
              <mxPoint x="890" y="240" />
              <mxPoint x="890" y="80" />
            </Array>
          </mxGeometry>
        </mxCell>
        <mxCell id="xWA896LJ9tH8qgdd4yTV-3" value="App Desktop quản lí đặt vé xem phim" style="rounded=0;whiteSpace=wrap;html=1;" vertex="1" parent="1">
          <mxGeometry x="390" y="200" width="180" height="80" as="geometry" />
        </mxCell>
        <mxCell id="xWA896LJ9tH8qgdd4yTV-40" style="edgeStyle=orthogonalEdgeStyle;rounded=0;orthogonalLoop=1;jettySize=auto;html=1;entryX=0.25;entryY=0;entryDx=0;entryDy=0;endArrow=none;endFill=0;startArrow=classic;startFill=1;" edge="1" parent="1" source="xWA896LJ9tH8qgdd4yTV-4" target="xWA896LJ9tH8qgdd4yTV-8">
          <mxGeometry relative="1" as="geometry">
            <Array as="points">
              <mxPoint x="190" y="320" />
            </Array>
          </mxGeometry>
        </mxCell>
        <mxCell id="xWA896LJ9tH8qgdd4yTV-44" style="edgeStyle=orthogonalEdgeStyle;rounded=0;orthogonalLoop=1;jettySize=auto;html=1;entryX=0.5;entryY=0;entryDx=0;entryDy=0;endArrow=none;endFill=0;startArrow=classic;startFill=1;" edge="1" parent="1" source="xWA896LJ9tH8qgdd4yTV-4" target="xWA896LJ9tH8qgdd4yTV-8">
          <mxGeometry relative="1" as="geometry">
            <Array as="points">
              <mxPoint x="220" y="340" />
            </Array>
          </mxGeometry>
        </mxCell>
        <mxCell id="xWA896LJ9tH8qgdd4yTV-46" style="edgeStyle=orthogonalEdgeStyle;rounded=0;orthogonalLoop=1;jettySize=auto;html=1;entryX=0.75;entryY=0;entryDx=0;entryDy=0;endArrow=none;endFill=0;startArrow=classic;startFill=1;" edge="1" parent="1" source="xWA896LJ9tH8qgdd4yTV-4" target="xWA896LJ9tH8qgdd4yTV-8">
          <mxGeometry relative="1" as="geometry">
            <Array as="points">
              <mxPoint x="400" y="370" />
              <mxPoint x="250" y="370" />
            </Array>
          </mxGeometry>
        </mxCell>
        <mxCell id="xWA896LJ9tH8qgdd4yTV-54" style="edgeStyle=orthogonalEdgeStyle;rounded=0;orthogonalLoop=1;jettySize=auto;html=1;entryX=1;entryY=0.25;entryDx=0;entryDy=0;exitX=0.5;exitY=1;exitDx=0;exitDy=0;" edge="1" parent="1" source="xWA896LJ9tH8qgdd4yTV-4" target="xWA896LJ9tH8qgdd4yTV-8">
          <mxGeometry relative="1" as="geometry">
            <Array as="points">
              <mxPoint x="480" y="415" />
            </Array>
          </mxGeometry>
        </mxCell>
        <mxCell id="xWA896LJ9tH8qgdd4yTV-56" style="edgeStyle=orthogonalEdgeStyle;rounded=0;orthogonalLoop=1;jettySize=auto;html=1;entryX=1;entryY=0.75;entryDx=0;entryDy=0;exitX=0.639;exitY=1;exitDx=0;exitDy=0;exitPerimeter=0;" edge="1" parent="1" source="xWA896LJ9tH8qgdd4yTV-4" target="xWA896LJ9tH8qgdd4yTV-8">
          <mxGeometry relative="1" as="geometry">
            <mxPoint x="505" y="364" as="sourcePoint" />
            <Array as="points">
              <mxPoint x="500" y="360" />
              <mxPoint x="500" y="445" />
            </Array>
          </mxGeometry>
        </mxCell>
        <mxCell id="xWA896LJ9tH8qgdd4yTV-58" style="edgeStyle=orthogonalEdgeStyle;rounded=0;orthogonalLoop=1;jettySize=auto;html=1;exitX=0.75;exitY=1;exitDx=0;exitDy=0;entryX=1;entryY=1;entryDx=0;entryDy=0;" edge="1" parent="1" source="xWA896LJ9tH8qgdd4yTV-4" target="xWA896LJ9tH8qgdd4yTV-8">
          <mxGeometry relative="1" as="geometry" />
        </mxCell>
        <mxCell id="xWA896LJ9tH8qgdd4yTV-4" value="App android đặt vé xem phim online" style="rounded=0;whiteSpace=wrap;html=1;" vertex="1" parent="1">
          <mxGeometry x="390" y="300" width="180" height="60" as="geometry" />
        </mxCell>
        <mxCell id="xWA896LJ9tH8qgdd4yTV-7" value="&lt;font style=&quot;font-size: 14px;&quot;&gt;Đăng nhập&lt;/font&gt;" style="text;html=1;align=center;verticalAlign=middle;resizable=0;points=[];autosize=1;strokeColor=none;fillColor=none;" vertex="1" parent="1">
          <mxGeometry x="275" y="30" width="90" height="30" as="geometry" />
        </mxCell>
        <mxCell id="xWA896LJ9tH8qgdd4yTV-8" value="Khách hàng" style="rounded=0;whiteSpace=wrap;html=1;" vertex="1" parent="1">
          <mxGeometry x="160" y="400" width="120" height="60" as="geometry" />
        </mxCell>
        <mxCell id="xWA896LJ9tH8qgdd4yTV-11" style="edgeStyle=orthogonalEdgeStyle;rounded=0;orthogonalLoop=1;jettySize=auto;html=1;exitX=1.03;exitY=0.14;exitDx=0;exitDy=0;exitPerimeter=0;" edge="1" parent="1" source="xWA896LJ9tH8qgdd4yTV-1">
          <mxGeometry relative="1" as="geometry">
            <mxPoint x="290" y="90" as="sourcePoint" />
            <mxPoint x="440" y="200" as="targetPoint" />
            <Array as="points">
              <mxPoint x="284" y="90" />
              <mxPoint x="440" y="90" />
            </Array>
          </mxGeometry>
        </mxCell>
        <mxCell id="xWA896LJ9tH8qgdd4yTV-12" value="&lt;font style=&quot;font-size: 14px;&quot;&gt;Yêu cầu thêm, xoá, sửa&lt;/font&gt;" style="edgeLabel;html=1;align=center;verticalAlign=middle;resizable=0;points=[];" vertex="1" connectable="0" parent="xWA896LJ9tH8qgdd4yTV-11">
          <mxGeometry x="-0.4442" y="9" relative="1" as="geometry">
            <mxPoint x="-6" y="-11" as="offset" />
          </mxGeometry>
        </mxCell>
        <mxCell id="xWA896LJ9tH8qgdd4yTV-13" style="edgeStyle=orthogonalEdgeStyle;rounded=0;orthogonalLoop=1;jettySize=auto;html=1;exitX=1;exitY=0.75;exitDx=0;exitDy=0;" edge="1" parent="1" source="xWA896LJ9tH8qgdd4yTV-1">
          <mxGeometry relative="1" as="geometry">
            <mxPoint x="420" y="197" as="targetPoint" />
            <Array as="points">
              <mxPoint x="280" y="140" />
              <mxPoint x="420" y="140" />
              <mxPoint x="420" y="197" />
            </Array>
          </mxGeometry>
        </mxCell>
        <mxCell id="xWA896LJ9tH8qgdd4yTV-14" value="Tạo tài khoản nhân viên" style="edgeLabel;html=1;align=center;verticalAlign=middle;resizable=0;points=[];" vertex="1" connectable="0" parent="xWA896LJ9tH8qgdd4yTV-13">
          <mxGeometry x="-0.3242" y="9" relative="1" as="geometry">
            <mxPoint x="13" y="-1" as="offset" />
          </mxGeometry>
        </mxCell>
        <mxCell id="xWA896LJ9tH8qgdd4yTV-17" value="&lt;font style=&quot;font-size: 14px;&quot;&gt;Yêu cầu báo cáo, thống kê&lt;/font&gt;" style="text;html=1;align=center;verticalAlign=middle;resizable=0;points=[];autosize=1;strokeColor=none;fillColor=none;" vertex="1" parent="1">
          <mxGeometry x="260" y="95" width="190" height="30" as="geometry" />
        </mxCell>
        <mxCell id="xWA896LJ9tH8qgdd4yTV-18" value="Thông tin đăng nhập" style="text;html=1;align=center;verticalAlign=middle;resizable=0;points=[];autosize=1;strokeColor=none;fillColor=none;" vertex="1" parent="1">
          <mxGeometry x="190" y="250" width="130" height="30" as="geometry" />
        </mxCell>
        <mxCell id="xWA896LJ9tH8qgdd4yTV-20" value="Trả lời yêu cầu thêm, xoá, sửa" style="text;html=1;align=center;verticalAlign=middle;resizable=0;points=[];autosize=1;strokeColor=none;fillColor=none;" vertex="1" parent="1">
          <mxGeometry x="165" y="218" width="190" height="30" as="geometry" />
        </mxCell>
        <mxCell id="xWA896LJ9tH8qgdd4yTV-21" style="edgeStyle=orthogonalEdgeStyle;rounded=0;orthogonalLoop=1;jettySize=auto;html=1;entryX=0.39;entryY=1.007;entryDx=0;entryDy=0;entryPerimeter=0;" edge="1" parent="1" source="xWA896LJ9tH8qgdd4yTV-3" target="xWA896LJ9tH8qgdd4yTV-1">
          <mxGeometry relative="1" as="geometry">
            <Array as="points">
              <mxPoint x="400" y="190" />
              <mxPoint x="207" y="190" />
            </Array>
          </mxGeometry>
        </mxCell>
        <mxCell id="xWA896LJ9tH8qgdd4yTV-22" value="Trả lời yêu cầu báo cáo, thống kê" style="text;html=1;align=center;verticalAlign=middle;resizable=0;points=[];autosize=1;strokeColor=none;fillColor=none;" vertex="1" parent="1">
          <mxGeometry x="190" y="188" width="200" height="30" as="geometry" />
        </mxCell>
        <mxCell id="xWA896LJ9tH8qgdd4yTV-23" style="edgeStyle=orthogonalEdgeStyle;rounded=0;orthogonalLoop=1;jettySize=auto;html=1;entryX=0.643;entryY=1.007;entryDx=0;entryDy=0;entryPerimeter=0;" edge="1" parent="1" source="xWA896LJ9tH8qgdd4yTV-3" target="xWA896LJ9tH8qgdd4yTV-1">
          <mxGeometry relative="1" as="geometry">
            <Array as="points">
              <mxPoint x="410" y="160" />
              <mxPoint x="237" y="160" />
            </Array>
          </mxGeometry>
        </mxCell>
        <mxCell id="xWA896LJ9tH8qgdd4yTV-24" value="Trả lời yêu cầu tạo tài khoản" style="text;html=1;align=center;verticalAlign=middle;resizable=0;points=[];autosize=1;strokeColor=none;fillColor=none;" vertex="1" parent="1">
          <mxGeometry x="230" y="160" width="180" height="30" as="geometry" />
        </mxCell>
        <mxCell id="xWA896LJ9tH8qgdd4yTV-26" style="edgeStyle=orthogonalEdgeStyle;rounded=0;orthogonalLoop=1;jettySize=auto;html=1;entryX=0.631;entryY=0.015;entryDx=0;entryDy=0;entryPerimeter=0;" edge="1" parent="1" source="xWA896LJ9tH8qgdd4yTV-2" target="xWA896LJ9tH8qgdd4yTV-3">
          <mxGeometry relative="1" as="geometry">
            <Array as="points">
              <mxPoint x="730" y="70" />
              <mxPoint x="504" y="70" />
            </Array>
          </mxGeometry>
        </mxCell>
        <mxCell id="xWA896LJ9tH8qgdd4yTV-28" value="Đăng nhập" style="text;html=1;align=center;verticalAlign=middle;resizable=0;points=[];autosize=1;strokeColor=none;fillColor=none;" vertex="1" parent="1">
          <mxGeometry x="540" y="18" width="80" height="30" as="geometry" />
        </mxCell>
        <mxCell id="xWA896LJ9tH8qgdd4yTV-29" value="Yêu cầu thiết lập hiệu chỉnh lịch chiếu phim" style="text;html=1;align=center;verticalAlign=middle;resizable=0;points=[];autosize=1;strokeColor=none;fillColor=none;" vertex="1" parent="1">
          <mxGeometry x="475" y="48" width="250" height="30" as="geometry" />
        </mxCell>
        <mxCell id="xWA896LJ9tH8qgdd4yTV-31" value="Yêu cầu báo cáo, thống kê" style="text;html=1;align=center;verticalAlign=middle;resizable=0;points=[];autosize=1;strokeColor=none;fillColor=none;" vertex="1" parent="1">
          <mxGeometry x="510" y="78" width="170" height="30" as="geometry" />
        </mxCell>
        <mxCell id="xWA896LJ9tH8qgdd4yTV-33" style="edgeStyle=orthogonalEdgeStyle;rounded=0;orthogonalLoop=1;jettySize=auto;html=1;" edge="1" parent="1" source="xWA896LJ9tH8qgdd4yTV-3">
          <mxGeometry relative="1" as="geometry">
            <mxPoint x="780" y="140" as="targetPoint" />
            <Array as="points">
              <mxPoint x="781" y="210" />
            </Array>
          </mxGeometry>
        </mxCell>
        <mxCell id="xWA896LJ9tH8qgdd4yTV-36" value="Trạng thái đăng nhập" style="text;html=1;align=center;verticalAlign=middle;resizable=0;points=[];autosize=1;strokeColor=none;fillColor=none;" vertex="1" parent="1">
          <mxGeometry x="585" y="188" width="140" height="30" as="geometry" />
        </mxCell>
        <mxCell id="xWA896LJ9tH8qgdd4yTV-37" value="Trả lời yêu cầu thiết lập, hiệu chỉnh lịch chiếu phim" style="text;html=1;align=center;verticalAlign=middle;resizable=0;points=[];autosize=1;strokeColor=none;fillColor=none;" vertex="1" parent="1">
          <mxGeometry x="570" y="218" width="290" height="30" as="geometry" />
        </mxCell>
        <mxCell id="xWA896LJ9tH8qgdd4yTV-39" value="Trả lời yêu cầu báo cáo, thống kê" style="text;html=1;align=center;verticalAlign=middle;resizable=0;points=[];autosize=1;strokeColor=none;fillColor=none;" vertex="1" parent="1">
          <mxGeometry x="600" y="248" width="200" height="30" as="geometry" />
        </mxCell>
        <mxCell id="xWA896LJ9tH8qgdd4yTV-41" value="Đăng nhập" style="text;html=1;align=center;verticalAlign=middle;resizable=0;points=[];autosize=1;strokeColor=none;fillColor=none;" vertex="1" parent="1">
          <mxGeometry x="240" y="290" width="80" height="30" as="geometry" />
        </mxCell>
        <mxCell id="xWA896LJ9tH8qgdd4yTV-45" value="Yêu cầu đặt vé" style="text;html=1;align=center;verticalAlign=middle;resizable=0;points=[];autosize=1;strokeColor=none;fillColor=none;" vertex="1" parent="1">
          <mxGeometry x="230" y="318" width="100" height="30" as="geometry" />
        </mxCell>
        <mxCell id="xWA896LJ9tH8qgdd4yTV-47" value="Yêu cầu hoàn vé" style="text;html=1;align=center;verticalAlign=middle;resizable=0;points=[];autosize=1;strokeColor=none;fillColor=none;" vertex="1" parent="1">
          <mxGeometry x="235" y="348" width="110" height="30" as="geometry" />
        </mxCell>
        <mxCell id="xWA896LJ9tH8qgdd4yTV-51" style="edgeStyle=orthogonalEdgeStyle;rounded=0;orthogonalLoop=1;jettySize=auto;html=1;" edge="1" parent="1" source="xWA896LJ9tH8qgdd4yTV-48">
          <mxGeometry relative="1" as="geometry">
            <mxPoint x="160" y="460" as="targetPoint" />
            <Array as="points">
              <mxPoint x="-60" y="460" />
              <mxPoint x="160" y="460" />
            </Array>
          </mxGeometry>
        </mxCell>
        <mxCell id="xWA896LJ9tH8qgdd4yTV-48" value="ZaloPay" style="rounded=0;whiteSpace=wrap;html=1;" vertex="1" parent="1">
          <mxGeometry x="-120" y="318" width="120" height="60" as="geometry" />
        </mxCell>
        <mxCell id="xWA896LJ9tH8qgdd4yTV-49" style="edgeStyle=orthogonalEdgeStyle;rounded=0;orthogonalLoop=1;jettySize=auto;html=1;entryX=0.845;entryY=1.04;entryDx=0;entryDy=0;entryPerimeter=0;" edge="1" parent="1" source="xWA896LJ9tH8qgdd4yTV-8" target="xWA896LJ9tH8qgdd4yTV-48">
          <mxGeometry relative="1" as="geometry">
            <Array as="points">
              <mxPoint x="-19" y="430" />
            </Array>
          </mxGeometry>
        </mxCell>
        <mxCell id="xWA896LJ9tH8qgdd4yTV-50" value="Yêu cầu thanh toán" style="text;html=1;align=center;verticalAlign=middle;resizable=0;points=[];autosize=1;strokeColor=none;fillColor=none;" vertex="1" parent="1">
          <mxGeometry y="400" width="130" height="30" as="geometry" />
        </mxCell>
        <mxCell id="xWA896LJ9tH8qgdd4yTV-52" value="Trả lời yêu cầu thanh toán" style="text;html=1;align=center;verticalAlign=middle;resizable=0;points=[];autosize=1;strokeColor=none;fillColor=none;" vertex="1" parent="1">
          <mxGeometry x="-50" y="438" width="160" height="30" as="geometry" />
        </mxCell>
        <mxCell id="xWA896LJ9tH8qgdd4yTV-55" value="Thông tin đăng nhập" style="text;html=1;align=center;verticalAlign=middle;resizable=0;points=[];autosize=1;strokeColor=none;fillColor=none;" vertex="1" parent="1">
          <mxGeometry x="295" y="388" width="130" height="30" as="geometry" />
        </mxCell>
        <mxCell id="xWA896LJ9tH8qgdd4yTV-57" value="Trả lời yêu cầu đặt vé" style="text;html=1;align=center;verticalAlign=middle;resizable=0;points=[];autosize=1;strokeColor=none;fillColor=none;" vertex="1" parent="1">
          <mxGeometry x="300" y="418" width="140" height="30" as="geometry" />
        </mxCell>
        <mxCell id="xWA896LJ9tH8qgdd4yTV-59" value="Yêu cầu hoàn vé" style="text;html=1;align=center;verticalAlign=middle;resizable=0;points=[];autosize=1;strokeColor=none;fillColor=none;" vertex="1" parent="1">
          <mxGeometry x="315" y="458" width="110" height="30" as="geometry" />
        </mxCell>
      </root>
    </mxGraphModel>
  </diagram>
  <diagram id="O-FyHahZgGYDX2NCZWll" name="Mức ngữ cảnh cấp 0">
    <mxGraphModel dx="1290" dy="530" grid="1" gridSize="10" guides="1" tooltips="1" connect="1" arrows="1" fold="1" page="1" pageScale="1" pageWidth="827" pageHeight="1169" math="0" shadow="0">
      <root>
        <mxCell id="0" />
        <mxCell id="1" parent="0" />
      </root>
    </mxGraphModel>
  </diagram>
</mxfile>
